<svg viewBox="0 0 512 512" xmlns="http://www.w3.org/2000/svg"><path d="M147.747 398.053a15.833 15.833 0 1 0 15.834 15.833 15.85 15.85 0 0 0-15.834-15.833Zm0 21.666a5.833 5.833 0 1 1 5.834-5.833 5.84 5.84 0 0 1-5.834 5.833ZM98.438 152.934H74.184a5 5 0 0 0-5 5v24.254a5 5 0 0 0 5 5h24.254a5 5 0 0 0 5-5v-24.254a5 5 0 0 0-5-5Zm-5 24.254H79.184v-14.254h14.254ZM98.438 213.396H74.184a5 5 0 0 0-5 5v24.254a5 5 0 0 0 5 5h24.254a5 5 0 0 0 5-5v-24.254a5 5 0 0 0-5-5Zm-5 24.254H79.184v-14.254h14.254ZM98.438 273.858H74.184a5 5 0 0 0-5 5v24.254a5 5 0 0 0 5 5h24.254a5 5 0 0 0 5-5v-24.255a5 5 0 0 0-5-5Zm-5 24.254H79.184v-14.255h14.254ZM201.101 285.985h-73.166a5 5 0 0 0 0 10H201.1a5 5 0 0 0 0-10ZM201.101 311.49h-73.166a5 5 0 0 0 0 10H201.1a5 5 0 1 0 0-10Z" fill="#1f1f1f" class="fill-000000"></path><path d="M473.755 54.53a18.994 18.994 0 0 0-11.84-6.31c-2.72-.35-5.84-.72-9.3-1.07v-3.59a13.068 13.068 0 0 0-10.9-12.92 243.3 243.3 0 0 0-42.71-3.35v-5.34a12.093 12.093 0 0 0-12.07-12.08h-22a32.572 32.572 0 0 0-32.54 32.53V44a71.226 71.226 0 0 0-17.31 15.5 9.335 9.335 0 0 1-14.7 0c-14.14-17.71-36.95-28.25-67.79-31.32-24.27-2.41-47.28.51-58.83 2.46a13.072 13.072 0 0 0-10.91 12.92v3.59c-3.46.35-6.58.72-9.3 1.07a19.06 19.06 0 0 0-16.58 18.85v5.52h-75.77a27.728 27.728 0 0 0-27.7 27.69v320.51a27.73 27.73 0 0 0 27.7 27.7h140.242l19.717 13.46a22.933 22.933 0 0 1 9.571 14.524l.003.011a22.96 22.96 0 0 1 .434 4.42v16.226a5 5 0 0 0 10 0v-16.227c0-.144-.012-.288-.013-.432h12.885a5 5 0 1 0 0-10h-14.577a32.919 32.919 0 0 0-12.665-16.78L198.81 434.58a10.318 10.318 0 0 1-3.365-13.182 10.296 10.296 0 0 1 14.152-4.33l16.85 9.317a5 5 0 0 0 7.42-4.376V316.789a9.05 9.05 0 1 1 18.101 0v90.089a5 5 0 1 0 10 0v-31.989a9.8 9.8 0 0 1 19.6 0v31.989a5 5 0 1 0 10 0v-31.989a9.8 9.8 0 0 1 19.6 0v31.989a5 5 0 0 0 10 0v-31.989a9.8 9.8 0 0 1 19.6 0v45.712a46.809 46.809 0 0 1-16.423 35.634 37.557 37.557 0 0 0-13.177 28.59v12.305a5 5 0 0 0 10 0v-12.305a27.569 27.569 0 0 1 9.673-20.987 56.796 56.796 0 0 0 19.927-43.237v-45.712a19.772 19.772 0 0 0-34.6-13.107 19.711 19.711 0 0 0-29.6 0 19.687 19.687 0 0 0-24.582-4.084v-90.784a118.8 118.8 0 0 1 23.29 13.315 37.46 37.46 0 0 0 44.92 0c20.26-15.04 58.93-32.02 128.08-27.52a18.992 18.992 0 0 0 20.22-18.96V67.07a18.983 18.983 0 0 0-4.74-12.54Zm-300.9-10.97a3.102 3.102 0 0 1 2.58-3.06c20.04-3.39 87.73-11.59 117.14 25.24a19.365 19.365 0 0 0 10.163 6.678V212.3a5 5 0 0 0 10 0V72.418a19.36 19.36 0 0 0 10.167-6.679 59.233 59.233 0 0 1 9.49-9.44v33.36a9.52 9.52 0 0 0 6.81 9.16 9.686 9.686 0 0 0 2.8.41 9.478 9.478 0 0 0 7.93-4.28l5.91-8.87 5.9 8.87a9.568 9.568 0 0 0 17.54-5.29V66.04a5 5 0 1 0-10 0v22.19l-9.28-13.95a4.992 4.992 0 0 0-8.33 0l-9.28 13.95V42.4a22.537 22.537 0 0 1 22.54-22.53h22a2.076 2.076 0 0 1 2.07 2.08v5.73q-3.045.195-6.12.5-4.695.465-9.13 1.17a.019.019 0 0 0-.03 0c-.21.03-.42.06-.62.1a4.997 4.997 0 0 0-3.87 4.87v14.4a5 5 0 1 0 10 0V38.68a178.59 178.59 0 0 1 22.74-1.39 235.487 235.487 0 0 1 38.07 3.21 3.094 3.094 0 0 1 2.57 3.06v170.52a3.065 3.065 0 0 1-1 2.28 3.098 3.098 0 0 1-2.4.81c-72.04-6.43-109.48 15.81-125.38 29.63a9.546 9.546 0 0 1-1.097.814v-17.565a5 5 0 0 0-10 0v17.567a9.585 9.585 0 0 1-1.103-.816c-13.96-12.14-44.53-30.77-100.58-30.77-7.76 0-16.02.36-24.79 1.14a3.098 3.098 0 0 1-2.4-.81 3.03 3.03 0 0 1-1.01-2.28ZM61.205 82.59h75.77v22.743c-.02 0-.04-.006-.06-.006h-93.41v-5.048a17.711 17.711 0 0 1 17.7-17.69Zm181.712 215.148a19.073 19.073 0 0 0-19.051 19.051v96.741l-9.432-5.215a20.285 20.285 0 0 0-26.615 29.128q.5.74 1.067 1.44c-.109-.132-.226-.259-.33-.394H61.204a17.72 17.72 0 0 1-17.7-17.7v-31.694h157.596a5 5 0 0 0 0-10H43.505V115.327h93.41c.02 0 .04-.006.06-.006v118.428a18.992 18.992 0 0 0 20.22 18.96c41.897-2.726 72.589 2.436 94.79 10.27v37.06a18.932 18.932 0 0 0-9.069-2.3Zm225.578-63.989a8.983 8.983 0 0 1-9.57 8.98c-72.18-4.7-113.09 13.43-134.69 29.47a27.51 27.51 0 0 1-33 0c-19.23-14.28-53.77-30.22-112.08-30.22-7.16 0-14.71.24-22.61.75a8.998 8.998 0 0 1-9.57-8.98V67.07a9.033 9.033 0 0 1 7.86-8.93c2.38-.31 5.06-.63 8.02-.94v156.88a13.12 13.12 0 0 0 14.3 13.05c68.35-6.1 103.22 14.43 117.92 27.22a19.4 19.4 0 0 0 25.32 0c14.7-12.79 49.57-33.32 117.93-27.22a13.104 13.104 0 0 0 14.29-13.05V57.2c2.96.31 5.64.63 8.02.94a9.033 9.033 0 0 1 7.86 8.93Z" fill="#1f1f1f" class="fill-000000"></path><path d="M344.135 136.807a5 5 0 0 0 3.162-1.123c.904-.735 22.618-17.877 63.373-7.163a5 5 0 0 0 2.542-9.672c-46.006-12.093-71.228 8.25-72.28 9.122a4.996 4.996 0 0 0 3.203 8.836ZM344.127 165.75a4.98 4.98 0 0 0 3.19-1.15c.217-.181 22.264-17.95 63.353-7.148a5 5 0 0 0 2.542-9.672c-46.004-12.092-71.228 8.25-72.28 9.122a5 5 0 0 0 3.195 8.848ZM344.127 194.682a4.98 4.98 0 0 0 3.19-1.152c.217-.18 22.264-17.948 63.353-7.147a5 5 0 0 0 2.542-9.672c-46.004-12.093-71.228 8.251-72.28 9.122a5 5 0 0 0 3.195 8.849ZM197.617 124.956a5.003 5.003 0 0 0 6.107 3.565c40.721-10.707 62.435 6.402 63.37 7.161a5 5 0 0 0 6.366-7.711c-1.051-.872-26.274-21.214-72.279-9.122a5 5 0 0 0-3.564 6.107ZM201.181 147.78a5 5 0 0 0 2.542 9.672c40.692-10.7 62.407 6.38 63.369 7.16a5 5 0 0 0 6.368-7.71c-1.051-.872-26.277-21.215-72.278-9.122ZM201.181 176.711a5 5 0 0 0 2.542 9.672c40.692-10.7 62.407 6.38 63.369 7.16a5 5 0 0 0 6.368-7.71c-1.051-.872-26.277-21.216-72.278-9.122Z" fill="#1f1f1f" class="fill-000000"></path></svg>