<svg width="24" height="31" viewBox="0 0 24 31" fill="none" xmlns="http://www.w3.org/2000/svg">
<path d="M15.8236 26.7132L15.2334 26.2504L15.8236 26.7132ZM8.17641 26.7132L7.58624 27.176L8.17641 26.7132ZM12 29.8825V29.1325V29.8825ZM22.25 12.837C22.25 14.6011 21.3376 16.9122 19.95 19.3655C18.5789 21.7895 16.8101 24.2398 15.2334 26.2504L16.4138 27.176C18.013 25.1366 19.8324 22.6201 21.2556 20.104C22.6621 17.6173 23.75 15.0153 23.75 12.837H22.25ZM8.76658 26.2504C7.18991 24.2398 5.4211 21.7895 4.05004 19.3655C2.66238 16.9122 1.75 14.6011 1.75 12.837H0.25C0.25 15.0153 1.33787 17.6173 2.74443 20.104C4.1676 22.6201 5.987 25.1366 7.58624 27.176L8.76658 26.2504ZM1.75 12.837C1.75 6.66106 6.38993 1.75 12 1.75V0.25C5.45981 0.25 0.25 5.93812 0.25 12.837H1.75ZM12 1.75C17.6101 1.75 22.25 6.66106 22.25 12.837H23.75C23.75 5.93812 18.5402 0.25 12 0.25V1.75ZM15.2334 26.2504C14.3885 27.3278 13.8115 28.0595 13.288 28.535C12.7966 28.9814 12.4267 29.1325 12 29.1325V30.6325C12.9115 30.6325 13.625 30.2554 14.2966 29.6453C14.936 29.0645 15.6017 28.2115 16.4138 27.176L15.2334 26.2504ZM7.58624 27.176C8.39826 28.2115 9.06396 29.0645 9.70344 29.6453C10.375 30.2554 11.0885 30.6325 12 30.6325V29.1325C11.5733 29.1325 11.2034 28.9814 10.712 28.535C10.1885 28.0595 9.61149 27.3278 8.76658 26.2504L7.58624 27.176ZM7.125 13.375C7.125 16.0674 9.30761 18.25 12 18.25V16.75C10.136 16.75 8.625 15.239 8.625 13.375H7.125ZM12 18.25C14.6924 18.25 16.875 16.0674 16.875 13.375H15.375C15.375 15.239 13.864 16.75 12 16.75V18.25ZM16.875 13.375C16.875 10.6826 14.6924 8.5 12 8.5V10C13.864 10 15.375 11.511 15.375 13.375H16.875ZM12 8.5C9.30761 8.5 7.125 10.6826 7.125 13.375H8.625C8.625 11.511 10.136 10 12 10V8.5Z" fill="white"/>
</svg>
